<?xml version="1.0" standalone="no"?><!DOCTYPE svg PUBLIC "-//W3C//DTD SVG 1.1//EN" "http://www.w3.org/Graphics/SVG/1.1/DTD/svg11.dtd"><svg t="1716776885189" class="icon" viewBox="0 0 1024 1024" version="1.1" xmlns="http://www.w3.org/2000/svg" p-id="1893" id="mx_n_1716776885191" width="200" height="200" xmlns:xlink="http://www.w3.org/1999/xlink"><path d="M390.518955 104.618667l614.4 151.381333v748.885333h-614.4V104.618667z" fill="#266BD2" p-id="1894"></path><path d="M17.100288 264.533333l371.2-153.6v893.952H17.100288V264.533333z" fill="#9DDAFE" p-id="1895"></path><path d="M566.476288 449.194667l-65.024-11.776v-165.376l65.024 11.946666v165.205334zM684.918955 472.746667l-65.194667-11.946667v-165.376l65.194667 11.946667v165.376z" fill="#0052CB" p-id="1896"></path><path d="M804.385621 489.130667l-65.194666-11.946667v-154.965333l65.194666 11.776v155.136z" fill="#F43151" p-id="1897"></path><path d="M923.852288 508.416l-65.194667-11.946667V349.866667l65.194667 11.946666v146.602667zM566.476288 688.298667l-65.024-11.946667v-165.376l65.024 11.946667v165.376zM683.724288 700.416l-65.024-8.533333v-165.376l65.024 11.946666v161.962667zM806.092288 709.461333l-65.024-8.533333v-155.136l65.024 11.946667v151.722666zM925.558955 722.090667l-65.024-8.533334v-150.016l65.024 11.946667v146.602667z" fill="#0052CB" p-id="1898"></path><path d="M319.350955 438.272l-51.2 15.36v-160.256l51.2-15.36v160.256zM318.668288 679.765333l-51.2 8.533334v-160.256l51.2-15.36v167.082666zM222.582955 699.733333l-51.2 8.533334v-160.256l51.2-15.36V699.733333zM125.985621 712.874667l-51.2 8.533333v-150.016l51.2-15.36v156.842667z" fill="#266BD2" p-id="1899"></path><path d="M219.852288 471.722667l-51.2 15.36v-160.256l51.2-15.36v160.256z" fill="#FF6F7A" p-id="1900"></path><path d="M128.033621 489.472l-51.2 15.189333v-146.602666l51.2-15.36v146.773333z" fill="#266BD2" p-id="1901"></path><path d="M17.100288 241.152h51.2v770.218667H17.100288z" fill="#FFFFFF" p-id="1902"></path><path d="M1011.062955 238.933333l-614.4-153.6a17.066667 17.066667 0 0 0-6.826667 0h-3.242667l-375.466666 153.6A17.066667 17.066667 0 0 0 0.033621 256v750.933333a17.066667 17.066667 0 0 0 17.066667 17.066667h989.866667a17.066667 17.066667 0 0 0 17.066666-17.066667V256a17.066667 17.066667 0 0 0-12.970666-17.066667zM375.500288 989.866667H34.166955V267.434667l341.333333-139.605334z m614.4 0H409.633621V124.245333l580.266667 145.066667z" fill="#3D3D59" p-id="1903"></path><path d="M857.121621 506.709333l68.266667 10.752h1.365333a8.533333 8.533333 0 0 0 8.533334-8.533333v-146.090667a8.533333 8.533333 0 0 0-6.826667-8.362666l-68.266667-14.677334a8.704 8.704 0 0 0-6.826666 1.536 8.533333 8.533333 0 0 0-3.242667 6.656v150.186667a8.533333 8.533333 0 0 0 6.997333 8.533333zM867.020288 358.4l51.2 10.922667v129.536l-51.2-8.192zM737.654955 487.253333l68.266666 10.922667h1.365334a8.533333 8.533333 0 0 0 8.533333-8.533333v-152.405334a8.533333 8.533333 0 0 0-6.826667-8.362666l-68.266666-13.994667a8.533333 8.533333 0 0 0-10.24 8.362667v155.477333a8.533333 8.533333 0 0 0 7.168 8.533333z m9.898666-153.6l51.2 10.410667v135.509333l-51.2-8.192zM618.188288 468.650667l68.266667 10.752h1.365333a8.533333 8.533333 0 0 0 8.533333-8.533334v-158.378666a8.533333 8.533333 0 0 0-6.826666-8.362667l-68.266667-14.506667a8.533333 8.533333 0 0 0-10.24 8.362667V460.8a8.533333 8.533333 0 0 0 7.168 7.850667z m9.898667-160.085334l51.2 10.922667V460.8l-51.2-8.192zM498.721621 449.024l68.266667 10.752h1.365333a8.533333 8.533333 0 0 0 8.533334-8.533333V286.72a8.533333 8.533333 0 0 0-6.826667-8.362667l-68.266667-13.653333a8.533333 8.533333 0 0 0-7.168 1.706667 8.533333 8.533333 0 0 0-3.072 6.656v167.424a8.533333 8.533333 0 0 0 7.168 8.533333z m9.898667-165.546667l51.2 10.24v147.626667l-51.2-8.021333zM267.980288 465.92h2.218667l51.2-13.824a8.533333 8.533333 0 0 0 6.314666-8.362667v-167.594666a8.533333 8.533333 0 0 0-11.264-8.021334l-51.2 17.066667a8.533333 8.533333 0 0 0-5.802666 8.021333v163.84a8.533333 8.533333 0 0 0 8.533333 8.533334z m8.533333-166.4l34.133334-11.605333v148.992l-34.133334 9.216zM170.700288 492.714667h2.218667l51.2-13.824a8.533333 8.533333 0 0 0 6.314666-8.192v-160.938667a8.533333 8.533333 0 0 0-3.584-6.997333 8.362667 8.362667 0 0 0-7.68-1.194667l-51.2 17.066667a8.533333 8.533333 0 0 0-5.802666 8.021333v156.672a8.533333 8.533333 0 0 0 8.533333 8.533333z m8.533333-159.232l34.133334-11.776v142.165333l-34.133334 9.216zM76.833621 518.826667h2.218667l51.2-14.336a8.533333 8.533333 0 0 0 6.314667-8.533334V341.333333a8.533333 8.533333 0 0 0-3.584-6.997333 8.704 8.704 0 0 0-7.850667-1.024l-51.2 18.261333a8.533333 8.533333 0 0 0-5.632 8.021334v150.698666a8.533333 8.533333 0 0 0 8.533333 8.533334z m8.533334-152.405334l34.133333-12.288v135.338667l-34.133333 9.557333zM857.633621 725.845333l68.266667 7.338667h0.853333a8.533333 8.533333 0 0 0 8.533334-8.533333v-151.552a8.533333 8.533333 0 0 0-7.168-8.362667l-68.266667-10.752a8.533333 8.533333 0 0 0-9.898667 8.362667V716.8a8.533333 8.533333 0 0 0 7.68 9.045333z m9.386667-153.6l51.2 8.021334v134.826666l-51.2-5.461333zM738.166955 713.557333l68.266666 7.338667h0.853334a8.533333 8.533333 0 0 0 8.533333-8.533333V554.666667a8.533333 8.533333 0 0 0-7.338667-8.362667l-68.266666-10.24a8.533333 8.533333 0 0 0-9.728 8.362667v160.768a8.533333 8.533333 0 0 0 7.68 8.362666z m9.386666-159.232l51.2 7.68v140.970667l-51.2-5.632zM618.529621 699.733333l68.266667 7.68h1.024a8.533333 8.533333 0 0 0 8.533333-8.533333v-162.133333a8.533333 8.533333 0 0 0-7.168-8.362667l-68.266666-10.24a8.533333 8.533333 0 0 0-9.898667 8.362667v165.717333a8.533333 8.533333 0 0 0 7.509333 7.509333z m9.557334-164.352l51.2 7.68v146.090667l-51.2-5.802667zM499.233621 687.957333l68.266667 7.338667h0.853333a8.533333 8.533333 0 0 0 8.533334-8.533333v-168.106667a8.533333 8.533333 0 0 0-7.168-8.362667l-68.266667-10.752a8.362667 8.362667 0 0 0-6.826667 1.877334 8.533333 8.533333 0 0 0-2.901333 6.485333v171.52a8.533333 8.533333 0 0 0 7.509333 8.533333z m9.386667-170.666666l51.2 8.021333v151.381333l-51.2-5.632zM267.980288 698.368h1.365333l51.2-8.704a8.533333 8.533333 0 0 0 7.168-8.362667v-170.666666a8.533333 8.533333 0 0 0-10.581333-8.362667l-51.2 12.458667a8.533333 8.533333 0 0 0-6.485333 8.362666v166.741334a8.533333 8.533333 0 0 0 8.533333 8.533333z m8.533333-169.301333l34.133334-8.362667v152.405333l-34.133334 5.802667zM170.700288 713.898667h1.365333l51.2-8.362667a8.533333 8.533333 0 0 0 7.168-8.362667V534.186667a8.533333 8.533333 0 0 0-10.581333-8.362667l-51.2 12.629333a8.533333 8.533333 0 0 0-6.485333 7.68v158.549334a8.533333 8.533333 0 0 0 8.533333 8.533333z m8.533333-160.426667l34.133334-8.362667v144.725334l-34.133334 5.461333zM76.833621 729.258667h1.365334l51.2-8.192a8.533333 8.533333 0 0 0 7.168-8.533334v-155.477333a8.533333 8.533333 0 0 0-3.242667-6.656 8.362667 8.362667 0 0 0-7.338667-1.536l-51.2 12.970667a8.533333 8.533333 0 0 0-6.485333 8.192v150.698666a8.533333 8.533333 0 0 0 8.533333 8.533334z m8.533334-152.576l34.133333-8.533334v136.533334l-34.133333 5.461333z" fill="#3D3D59" p-id="1904"></path></svg>